# xmcd
#
# Track frame offsets:
#	187
#	20722
#	41402
#	60652
#	78387
#	100357
#	119472
#	138875
#	157447
#	177247
#	197487
#	217642
#
# Disc length: 3146 seconds
#
# Revision: 1
# Processed by: cddbd v1.5.1PL0 Copyright (c) Steve Scherf et al.
# Submitted via: CDex 1.50Beta5
#
DISCID=a20c480c
DTITLE=シュー・ピンセイ - Passing Love綺麗な涙ありますか?
DYEAR=1993
DGENRE=Pop
TTITLE0=Passing Love
TTITLE1=恋する想い
TTITLE2=金の針 銀の糸
TTITLE3=雨のワルツ
TTITLE4=罪と罰
TTITLE5=上海エトランゼ
TTITLE6=綺麗な涙
TTITLE7=月夜のゴンドラ
TTITLE8=エトピリカ
TTITLE9=蘇州ものがたり
TTITLE10=トワイライト
TTITLE11=Passing Love
EXTD=
EXTT0=
EXTT1=
EXTT2=
EXTT3=
EXTT4=
EXTT5=
EXTT6=
EXTT7=
EXTT8=
EXTT9=
EXTT10=
EXTT11=
PLAYORDER=
